<?xml version="1.0" encoding="utf-8"?>
<?xml-stylesheet type="text/xsl" href="rss1.xsl"?>
<rss version="2.0" xmlns:atom="http://www.w3.org/2005/Atom" xmlns:content="http://purl.org/rss/1.0/modules/content/" xmlns:dc="http://purl.org/dc/elements/1.1/" xmlns:media="http://search.yahoo.com/mrss/">
<channel>
 <title>Getty</title>
 <link>http://www.gettyimg.com/</link>
 <atom:link href="http://www.gettyimg.com/" rel="self" type="application/rss+xml" />

 
                <item>
                <title><![CDATA[【SD】Ariana Grande Feat. Zedd- Break Free (2014) (Full Extended Version) (vob)]]></title>
                <link><![CDATA[https://sharemania.us/threads/ariana-grande-feat-zedd-break-free-2014-full-extended-version-vob.249580/]]></link>
                <description><![CDATA[<article>
<blockquote class="messageText SelectQuoteContainer ugc baseHtml">
<b><b><b><b><b><img src="https://i.imgur.com/ChV27ir.jpeg" class="bbCodeImage LbImage" alt="[​IMG]" data-url="https://i.imgur.com/ChV27ir.jpeg" style=""> <br>
Artist: <b>Ariana Grande Feat. Zedd</b> (<a href="https://www.hq-music-videos.com/A/ariana_grande/" target="_blank" class="externalLink" rel="nofollow">Ariana Grande</a>, <a href="https://www.hq-music-videos.com/Z/zedd/" target="_blank" class="externalLink" rel="nofollow">Zedd</a>)<br>
Music Video: <b>Break Free (Full Extended Version)</b><br>
Song: <a href="https://www.hq-music-videos.com/_B/break_free/" target="_blank" class="externalLink" rel="nofollow">Break Free</a><br>
Video Genre: <b>Pop</b><br>
Released on DVD: <b>2014</b><br>
Album: <a href="https://www.hq-music-videos.com/dvds/dtvideos_extended_vol_119/" target="_blank" class="externalLink" rel="nofollow">DTVideos Extended Vol.119</a><br>
Video Format: <b>VOB (MPEG-2 video)</b> or <b>MP4 (MPEG-4 video)</b><br>
Added: <b><a href="https://www.hq-music-videos.com/archive/19.08.2020.html" target="_blank" class="externalLink" rel="nofollow"><span style="text-decoration: underline">19.08.2020</span></a></b><br>
VOB Quality of video and audio : <b>Untouched DVD Quality</b> (See screenshot)<br>
MP4-Video: <b>AVC, High@L3.0</b>, Audio: <b>AAC v4, Bit rate 576Kbps, 2 channels</b><br>
<br>
RIP FROM <a href="https://www.hq-music-videos.com/_B/break_free/break_free-hq_video_song-110537.html" target="_blank" class="externalLink" rel="nofollow">HQ MUSIC VIDEOS</a></b></b></b></b><br>
<br>
[/URL]
<div class="bbCodeBlock bbCodeVfcHH HiddenContent">
<div class="attribution type">Hidden Content:</div>
<blockquote>You must reply before you can see the hidden data contained here.</blockquote>
</div></b>
<div class="messageTextEndMarker">&nbsp;</div>
</blockquote>
</article>]]></description>
                <author><![CDATA[gamerfronts]]></author>
                </item>

                
                <item>
                <title><![CDATA[【Music Videos】Ariana Grande Feat. Iggy Azalea - Problem  SD (XMiX Edit) (DTVideos)]]></title>
                <link><![CDATA[https://sharemania.us/threads/ariana-grande-feat-iggy-azalea-problem-sd-xmix-edit-dtvideos.249581/]]></link>
                <description><![CDATA[<article>
<blockquote class="messageText SelectQuoteContainer ugc baseHtml">
<b><img src="https://i.imgur.com/XTRGH4z.jpeg" class="bbCodeImage LbImage" alt="[​IMG]" data-url="https://i.imgur.com/XTRGH4z.jpeg" style=""> <br>
Ariana Grande Feat. Iggy Azalea - Problem (XMiX Edit) <b><b><b>From DTVideos</b></b></b><br>
<div class="ToggleTriggerAnchor bbCodeSpoilerContainer">
<button type="button" class="button bbCodeSpoilerButton ToggleTrigger Tooltip JsOnly" data-target="> .SpoilerTarget"><span>Spoiler: <span class="SpoilerTitle">Media Info</span></span></button>
<div class="SpoilerTarget bbCodeSpoilerText">General<br>
Complete name : E:\Downloads\Music Videos\Ariana Grande Feat. Iggy Azalea - Problem (XMiX Edit).mp4<br>
Format : MPEG-4<br>
Format profile : Base Media<br>
Codec ID : isom (isom/iso2/avc1/mp41)<br>
File size : 43.3 MiB<br>
Duration : 3 min 57 s<br>
Overall bit rate : 1 528 kb/s<br>
Movie name : Problem (XMiX Edit)<br>
Performer : Ariana Grande Feat. Iggy Azalea<br>
Genre : Pop<br>
Recorded date : 2014<br>
Writing application : Lavf58.29.100<br>
Comment : sharing.wtf<br>
<br>
Video<br>
ID : 1<br>
Format : AVC<br>
Format/Info : Advanced Video Codec<br>
Format profile : High@L3<br>
Format settings, CABAC : Yes<br>
Format settings, RefFrames : 4 frames<br>
Codec ID : avc1<br>
Codec ID/Info : Advanced Video Coding<br>
Duration : 3 min 57 s<br>
Bit rate : 1 400 kb/s<br>
Width : 570 pixels<br>
Height : 320 pixels<br>
Display aspect ratio : 16:9<br>
Frame rate mode : Constant<br>
Frame rate : 30.000 FPS<br>
Color space : YUV<br>
Chroma subsampling : 4:2:0<br>
Bit depth : 8 bits<br>
Scan type : Progressive<br>
Bits/(Pixel*Frame) : 0.256<br>
Stream size : 39.4 MiB (91%)<br>
Writing library : x264 core 155 r2917 0a84d98<br>
Encoding settings : cabac=1 / ref=3 / deblock=1:0:0 / analyse=0x3:0x113 / me=hex / subme=7 / psy=1 / psy_rd=1.00:0.00 / mixed_ref=1 / me_range=16 / chroma_me=1 / trellis=1 / 8x8dct=1 / cqm=0 / deadzone=21,11 / fast_pskip=1 / chroma_qp_offset=-2 / threads=10 / lookahead_threads=1 / sliced_threads=0 / nr=0 / decimate=1 / interlaced=0 / bluray_compat=0 / constrained_intra=0 / bframes=3 / b_pyramid=2 / b_adapt=1 / b_bias=0 / direct=1 / weightb=1 / open_gop=0 / weightp=2 / keyint=250 / keyint_min=25 / scenecut=40 / intra_refresh=0 / rc_lookahead=40 / rc=abr / mbtree=1 / bitrate=1400 / ratetol=1.0 / qcomp=0.60 / qpmin=0 / qpmax=69 / qpstep=4 / ip_ratio=1.40 / aq=1:1.00<br>
Language : English<br>
<br>
Audio<br>
ID : 2<br>
Format : AAC<br>
Format/Info : Advanced Audio Codec<br>
Format profile : LC<br>
Codec ID : 40<br>
Duration : 3 min 57 s<br>
Bit rate mode : Constant<br>
Bit rate : 128 kb/s<br>
Channel(s) : 2 channels<br>
Channel positions : Front: L R<br>
Sampling rate : 44.1 kHz<br>
Frame rate : 43.066 FPS (1024 SPF)<br>
Compression mode : Lossy<br>
Stream size : 3.63 MiB (8%)<br>
Language : English<br>
Default : Yes<br>
Alternate group : 1</div>
</div><br>
<b>[/URL]
<div class="bbCodeBlock bbCodeVfcHH HiddenContent">
<div class="attribution type">Hidden Content:</div>
<blockquote>You must reply before you can see the hidden data contained here.</blockquote>
</div></b></b>
<div class="messageTextEndMarker">&nbsp;</div>
</blockquote>
</article>]]></description>
                <author><![CDATA[gamerfronts]]></author>
                </item>

                </channel></rss>